<svg version="1.1" xmlns="http://www.w3.org/2000/svg" xmlns:xlink="http://www.w3.org/1999/xlink" width="440.16536" height="38.25055" viewBox="0,0,440.16536,38.25055"><g transform="translate(-27.7972,-150.46409)"><g stroke-miterlimit="10"><path d="M396.78283,180.92114c0,-6.99314 0,-17.43803 0,-21.60854c0,-4.38678 2.36771,-7.84851 6.75448,-7.84851c8.13573,0 42.33439,0 56.85747,0c4.2257,0 6.56778,2.81249 6.56778,7.03819c0,7.02565 0,17.35246 0,21.47348c0,4.52519 -2.5828,7.73888 -7.108,7.73888c-14.94229,0 -48.87982,0 -56.72241,0c-3.1584,0 -6.34932,-0.34058 -6.34932,-6.79351z" fill="#000000" stroke="#ffffff" stroke-width="2"/><text transform="translate(405.81237,176.68822) scale(0.59157,0.59157)" font-size="40" xml:space="preserve" fill="#ffffff" stroke="none" stroke-width="1" font-family="&quot;Inter&quot;, &quot;ヒラギノ角ゴ Pro W3&quot;, &quot;Hiragino Kaku Gothic Pro&quot;, Osaka, &quot;メイリオ&quot;, Meiryo, &quot;ＭＳ Ｐゴシック&quot;, &quot;MS PGothic&quot;" font-weight="normal" text-anchor="start"><tspan x="0" dy="0">Input</tspan></text><text transform="translate(28.09299,176.68822) scale(0.59157,0.59157)" font-size="40" xml:space="preserve" fill-opacity="0.80784" fill="#ffffff" stroke="none" stroke-width="1" font-family="&quot;Inter&quot;, &quot;ヒラギノ角ゴ Pro W3&quot;, &quot;Hiragino Kaku Gothic Pro&quot;, Osaka, &quot;メイリオ&quot;, Meiryo, &quot;ＭＳ Ｐゴシック&quot;, &quot;MS PGothic&quot;" font-weight="normal" text-anchor="start"><tspan x="0" dy="0">Ratio</tspan></text></g></g></svg>