<svg version="1.1" xmlns="http://www.w3.org/2000/svg" xmlns:xlink="http://www.w3.org/1999/xlink" width="448.72694" height="38.25055" viewBox="0,0,448.72694,38.25055"><g transform="translate(-19.23563,-150.41719)"><g stroke-miterlimit="10"><text transform="translate(19.53141,176.64132) scale(0.59157,0.59157)" font-size="40" xml:space="preserve" fill-opacity="0.80784" fill="#ffffff" stroke="none" stroke-width="1" font-family="&quot;Inter&quot;, &quot;ヒラギノ角ゴ Pro W3&quot;, &quot;Hiragino Kaku Gothic Pro&quot;, Osaka, &quot;メイリオ&quot;, Meiryo, &quot;ＭＳ Ｐゴシック&quot;, &quot;MS PGothic&quot;" font-weight="normal" text-anchor="start"><tspan x="0" dy="0">Tuning</tspan></text><path d="M396.78283,180.87424c0,-6.99314 0,-17.43803 0,-21.60854c0,-4.38678 2.36771,-7.84851 6.75448,-7.84851c8.13573,0 42.33439,0 56.85747,0c4.2257,0 6.56778,2.81249 6.56778,7.03819c0,7.02565 0,17.35246 0,21.47348c0,4.52519 -2.5828,7.73888 -7.108,7.73888c-14.94229,0 -48.87982,0 -56.72241,0c-3.1584,0 -6.34932,-0.34058 -6.34932,-6.79351z" fill="#333333" stroke="#ffffff" stroke-width="2"/><text transform="translate(405.81241,176.6413) scale(0.59157,0.59157)" font-size="40" xml:space="preserve" fill="#ffffff" stroke="none" stroke-width="1" font-family="&quot;Inter&quot;, &quot;ヒラギノ角ゴ Pro W3&quot;, &quot;Hiragino Kaku Gothic Pro&quot;, Osaka, &quot;メイリオ&quot;, Meiryo, &quot;ＭＳ Ｐゴシック&quot;, &quot;MS PGothic&quot;" font-weight="normal" text-anchor="start"><tspan x="0" dy="0">Input</tspan></text><path d="M290.37616,180.87424c0,-6.99314 0,-17.43803 0,-21.60854c0,-4.38678 3.04995,-7.84851 8.70074,-7.84851c10.47998,0 54.53274,0 73.24054,0c5.44331,0 8.46024,2.81249 8.46024,7.03819c0,7.02565 0,17.35246 0,21.47348c0,4.52519 -3.32702,7.73888 -9.15612,7.73888c-19.2478,0 -62.96419,0 -73.06657,0c-4.06847,0 -8.17883,-0.34058 -8.17883,-6.79351z" fill="#000000" stroke="#ffffff" stroke-width="2"/><text transform="translate(296.62803,176.6413) scale(0.59157,0.59157)" font-size="40" xml:space="preserve" fill="#ffffff" stroke="none" stroke-width="1" font-family="&quot;Inter&quot;, &quot;ヒラギノ角ゴ Pro W3&quot;, &quot;Hiragino Kaku Gothic Pro&quot;, Osaka, &quot;メイリオ&quot;, Meiryo, &quot;ＭＳ Ｐゴシック&quot;, &quot;MS PGothic&quot;" font-weight="normal" text-anchor="start"><tspan x="0" dy="0">Temper</tspan></text></g></g></svg>